<svg xmlns="http://www.w3.org/2000/svg" id="Capa_1" viewBox="0 0 1001 288">
  <defs fill="#ffffff">
    <style>.cls-1{fill:#f7a800;}.cls-2{fill:#fff;}.cls-3,.cls-4{fill:#fcfcfc;}.cls-4{font-family:Montserrat-Medium, Montserrat;font-size:99.63px;isolation:isolate;letter-spacing:-.03em;}</style>
  </defs>
  <rect class="cls-2" x="-94" y="-367" width="1200" height="1200" fill="#ffffff"></rect>
  
  <path class="cls-3" d="M273.1,264.6c-7-1.2-13.4-2.4-19.9-3.5-10.1-1.6-20.1-3.1-30.2-4.4-6.1-.8-12.3-1-18.3-2.2-1.7-.3-3.8-2.7-4.3-4.6-3.8-14.5-7.2-29.1-10.8-43.6-2.4-9.8-5-19.6-7.5-29.3,16.6-5.9,33.2-11.8,50.4-17.9,13.2,34.2,26.8,69.5,40.6,105.5" fill="#ffffff" data-index="1" style="visibility: hidden;"></path>
  
  <path class="cls-3" d="M28.8,189.8c-3.3-5.3-2.1-12.6,1.9-18.2,7-9.8,17.1-15,27.9-18.2,20.6-6.2,41.5-11.3,62.4-16.5,28.7-7.2,58.1-12.1,85.8-23.1,11.7-4.7,21.9-11.7,27.9-23.4,.4-.8,1-1.4,1.6-2.3,4.7,8.4,1.1,21.2-5.4,28.4-9.2,10.1-21.3,15-33.9,18.4-23.5,6.4-47.1,12.2-70.7,18.3-20.7,5.4-41.5,10.4-62,16.3-13.3,3.9-25.8,9.8-35.5,20.3" fill="#ffffff" data-index="3" style="visibility: hidden;"></path>
  
  <g>
    <path class="cls-3" d="M552.8,14V94.8c0,46.8-25.1,64.7-65,64.7s-65-17.9-65-64.7V14h35.8V85.8c0,30.6,11.5,42.3,29.2,42.3s29.2-11.6,29.2-42.3V14h35.8Z" fill="#ffffff" data-index="5" style="visibility: hidden;"></path>
    
    <path class="cls-3" d="M788.4,135.3c16.1,0,31.7-4.7,45.3-9.5v25.6c-9,4.8-26.7,7.7-45.5,7.7-43.4,0-65.9-17.7-65.9-49.1s22.4-51.2,57-51.2c39.1,0,58.4,22.8,58.4,58.2h-78.7c2.8,10.3,10.9,18.3,29.4,18.3m-30.1-33.5h44.6c-1.8-11.8-8.8-17-23.7-17-12,.4-19.1,5.9-20.9,17" fill="#ffffff" data-index="7" style="visibility: hidden;"></path>
    
  </g>
  <rect class="cls-1" x="343.1" y="5.6" width="6.5" height="275.1" fill="#ffffff"></rect>
  <text class="cls-4" transform="translate(416.84 269.11)" fill="#ffffff">
    <tspan x="0" y="0" fill="#ffffff">POSGRADO</tspan>
  </text>
</svg>